<?xml version="1.0" encoding="UTF-8" standalone="no"?>
<svg width="129px" height="54px" viewBox="0 0 129 54" version="1.1" xmlns="http://www.w3.org/2000/svg" xmlns:xlink="http://www.w3.org/1999/xlink">
    <!-- Generator: Sketch 40.3 (33839) - http://www.bohemiancoding.com/sketch -->
    <title>MC Logo</title>
    <desc>Created with Sketch.</desc>
    <defs></defs>
    <g id="Page-1" stroke="none" stroke-width="1" fill="none" fill-rule="evenodd">
        <g id="MC-Multi-Home-Page---Splash" transform="translate(-655.000000, -13.000000)" fill="#FFFFFF">
            <g id="Nav-(Logged-Out)" transform="translate(655.000000, 11.000000)">
                <path d="M12.8717537,55.2296073 C12.9232407,55.4607251 12.8202666,55.6404834 12.5628316,55.6404834 L11.8935004,55.6404834 C11.7647828,55.6404834 11.6360653,55.5120846 11.5845783,55.4093656 L10.0914549,46.8066465 L10.0142243,46.8066465 L6.92500346,55.6148036 C6.89925996,55.7175227 6.74479891,55.7945619 6.64182488,55.7945619 L6.3329028,55.7945619 C6.22992877,55.7945619 6.07546772,55.7175227 6.04972422,55.6148036 L2.93475983,46.8066465 L2.85752931,46.8066465 L1.39014939,55.4093656 C1.36440589,55.5377644 1.23568835,55.6404834 1.08122731,55.6404834 L0.514870146,55.6404834 C0.257435073,55.6404834 0.154461044,55.4864048 0.205948058,55.2296073 L2.36840267,44.0075529 C2.39414618,43.8791541 2.54860722,43.776435 2.67732476,43.776435 L2.93475983,43.776435 C3.06347737,43.776435 3.19219491,43.8534743 3.21793841,43.9561934 L6.53885086,53.1495468 L6.61608138,53.1495468 L9.8855068,43.9561934 C9.91125031,43.8534743 10.0399678,43.776435 10.1686854,43.776435 L10.4261205,43.776435 C10.554838,43.776435 10.6835555,43.8791541 10.7350425,44.0075529 L12.8717537,55.2296073 L12.8717537,55.2296073 Z M26.9791957,55.2039275 C27.0821697,55.4093656 26.9534521,55.6404834 26.6960171,55.6404834 L26.0266859,55.6404834 C25.8722248,55.6404834 25.7692508,55.5377644 25.7435073,55.4607251 L24.507819,52.7129909 L18.5610688,52.7129909 L17.3511239,55.4607251 C17.3253804,55.5377644 17.2224064,55.6404834 17.0679453,55.6404834 L16.3986142,55.6404834 C16.1411791,55.6404834 16.0124615,55.4350453 16.1154356,55.2039275 L21.21265,43.9818731 C21.264137,43.8791541 21.3413676,43.8021148 21.4958286,43.8021148 L21.6245461,43.8021148 C21.7790072,43.8021148 21.8562377,43.8791541 21.9077247,43.9818731 L26.9791957,55.2039275 L26.9791957,55.2039275 Z M24.0444358,51.6601208 C23.2206436,49.836858 22.4225949,48.0135952 21.5988026,46.1903323 L21.4700851,46.1903323 L19.0244519,51.6601208 L24.0444358,51.6601208 L24.0444358,51.6601208 Z M33.2348679,49.092145 C31.818975,48.5015106 30.9694393,47.8595166 30.9694393,46.7296073 C30.9694393,46.0362538 31.5100529,44.8806647 33.2863549,44.8806647 C34.3160952,44.8806647 35.371579,45.5740181 35.4745531,45.6510574 C35.7319881,45.805136 35.9121927,45.7280967 36.0666537,45.4969789 C36.1438843,45.3942598 36.1953713,45.2915408 36.2726018,45.1888218 C36.4785498,44.8806647 36.2726018,44.6752266 36.1696278,44.6238671 C36.1696278,44.6238671 34.9596829,43.776435 33.3120985,43.776435 C30.6605172,43.776435 29.7594944,45.5996979 29.7594944,46.755287 C29.7594944,48.6555891 30.8664653,49.4003021 32.6942543,50.2220544 C34.6250173,51.0181269 35.6290141,51.7114804 35.6290141,52.8670695 C35.6290141,53.8429003 34.7537349,54.7160121 33.389329,54.7160121 C31.8962055,54.7160121 30.6862607,53.5347432 30.5575432,53.4577039 C30.3258516,53.2522659 30.1456471,53.3806647 29.9654425,53.6117825 C29.888212,53.7145015 29.8109815,53.8172205 29.7080074,53.9199396 C29.5020594,54.2280967 29.6822639,54.3821752 29.8109815,54.4848943 C30.0169295,54.6903323 31.3555919,55.8459215 33.337842,55.8459215 C35.2943485,55.8459215 36.941933,54.5876133 36.941933,52.8413897 C36.9676765,50.8640483 35.5002966,50.0166163 33.2348679,49.092145 L33.2348679,49.092145 Z M46.9046703,43.9561934 L39.7994623,43.9561934 C39.6192577,43.9561934 39.4905402,44.1102719 39.4905402,44.2643505 L39.4905402,44.7522659 C39.4905402,44.9063444 39.6192577,45.060423 39.7994623,45.060423 L42.7084786,45.060423 L42.7084786,55.3066465 C42.7084786,55.4864048 42.8629397,55.6148036 43.0174007,55.6148036 L43.6609884,55.6148036 C43.8411929,55.6148036 43.9699105,55.4607251 43.9699105,55.3066465 L43.9699105,45.060423 L46.8789268,45.060423 C47.0591314,45.060423 47.1878489,44.9063444 47.1878489,44.7522659 L47.1878489,44.2643505 C47.2135924,44.1102719 47.0848749,43.9561934 46.9046703,43.9561934 L46.9046703,43.9561934 Z M57.6397129,43.9561934 L51.049375,43.9561934 C50.8691704,43.9561934 50.7404529,44.1102719 50.7404529,44.2643505 L50.7404529,55.3066465 C50.7404529,55.4864048 50.8691704,55.6148036 51.049375,55.6148036 L57.6397129,55.6148036 C57.8199174,55.6148036 57.9486349,55.4607251 57.9486349,55.3066465 L57.9486349,54.8187311 C57.9486349,54.6646526 57.8199174,54.510574 57.6397129,54.510574 L52.0018848,54.510574 L52.0018848,50.2477341 L56.8159206,50.2477341 C56.9703817,50.2477341 57.1248427,50.1193353 57.1248427,49.939577 L57.1248427,49.4516616 C57.1248427,49.2975831 56.9703817,49.1435045 56.8159206,49.1435045 L52.0018848,49.1435045 L52.0018848,45.060423 L57.6139693,45.060423 C57.7941739,45.060423 57.9228914,44.9063444 57.9228914,44.7522659 L57.9228914,44.2643505 C57.9486349,44.1102719 57.8199174,43.9561934 57.6397129,43.9561934 L57.6397129,43.9561934 Z M68.1173203,50.9154079 L70.4084925,55.152568 C70.53721,55.358006 70.4084925,55.6404834 70.1253139,55.6404834 L69.2757782,55.6404834 C69.1213171,55.6404834 69.0440866,55.5634441 69.0183431,55.4864048 L66.8044015,51.0694864 L63.586463,51.0694864 L63.586463,55.3323263 C63.586463,55.5120846 63.432002,55.6404834 63.277541,55.6404834 L62.6339533,55.6404834 C62.4537487,55.6404834 62.3250312,55.4864048 62.3250312,55.3323263 L62.3250312,44.2900302 C62.3250312,44.1102719 62.4537487,43.9818731 62.6339533,43.9818731 L66.9588625,43.9818731 C68.9668561,43.9818731 70.6144405,45.5483384 70.6144405,47.5256798 C70.588697,49.0407855 69.5847002,50.3247734 68.1173203,50.9154079 L68.1173203,50.9154079 Z M69.2757782,47.5256798 C69.2757782,46.2673716 68.1430638,45.163142 66.8558885,45.163142 L63.6122065,45.163142 L63.6122065,49.9652568 L66.8558885,49.9652568 C68.1688073,49.9652568 69.2757782,48.8867069 69.2757782,47.5256798 L69.2757782,47.5256798 Z M83.7951163,53.2779456 C83.6921422,53.2009063 83.5634247,53.2009063 83.3832202,53.3293051 C82.5079409,53.9969789 81.6326617,54.5876133 80.1910253,54.5876133 C77.539444,54.5876133 75.5314504,52.3791541 75.5314504,49.7854985 C75.5314504,47.1918429 77.5651875,44.9833837 80.1910253,44.9833837 C81.3237396,44.9833837 82.5079409,45.4712991 83.3832202,46.2416918 C83.5634247,46.4214502 83.6921422,46.4214502 83.8208598,46.2673716 L84.2842429,45.805136 C84.4129604,45.6767372 84.4129604,45.4712991 84.2584994,45.3429003 C83.1257851,44.3670695 81.8900967,43.8021148 80.2167688,43.8021148 C76.8701128,43.8021148 74.1670445,46.4984894 74.1670445,49.836858 C74.1670445,53.1752266 76.8701128,55.8202417 80.2167688,55.8202417 C81.7098922,55.8202417 83.1515286,55.3066465 84.2842429,54.2024169 C84.4129604,54.0740181 84.438704,53.8429003 84.3099864,53.7401813 L83.7951163,53.2779456 L83.7951163,53.2779456 Z M94.6331328,54.510574 L89.819097,54.510574 L89.819097,44.2643505 C89.819097,44.0845921 89.6646359,43.9561934 89.5101749,43.9561934 L88.8665872,43.9561934 C88.6863827,43.9561934 88.5576651,44.1102719 88.5576651,44.2643505 L88.5576651,55.3066465 C88.5576651,55.4864048 88.6863827,55.6148036 88.8665872,55.6148036 L94.6588764,55.6148036 C94.8390809,55.6148036 94.9677984,55.4607251 94.9677984,55.3066465 L94.9677984,54.8187311 C94.9677984,54.6646526 94.8133374,54.510574 94.6331328,54.510574 L94.6331328,54.510574 Z M108.199961,55.2039275 C108.302935,55.4093656 108.174218,55.6404834 107.916783,55.6404834 L107.247451,55.6404834 C107.09299,55.6404834 106.990016,55.5377644 106.964273,55.4607251 L105.728584,52.7129909 L99.7818343,52.7129909 L98.5718895,55.4607251 C98.546146,55.5377644 98.4431719,55.6404834 98.2887109,55.6404834 L97.6193797,55.6404834 C97.3619446,55.6404834 97.2332271,55.4350453 97.3362011,55.2039275 L102.433416,43.9818731 C102.484903,43.8791541 102.562133,43.8021148 102.716594,43.8021148 L102.871055,43.8021148 C103.025516,43.8021148 103.102747,43.8791541 103.154234,43.9818731 L108.199961,55.2039275 L108.199961,55.2039275 Z M105.290945,51.6601208 C104.467153,49.836858 103.669104,48.0135952 102.845312,46.1903323 L102.716594,46.1903323 L100.270961,51.6601208 L105.290945,51.6601208 L105.290945,51.6601208 Z M114.481377,49.092145 C113.065484,48.5015106 112.215948,47.8595166 112.215948,46.7296073 C112.215948,46.0362538 112.756562,44.8806647 114.532864,44.8806647 C115.562604,44.8806647 116.618088,45.5740181 116.721062,45.6510574 C116.978497,45.805136 117.158702,45.7280967 117.313163,45.4969789 C117.390393,45.3942598 117.44188,45.2915408 117.519111,45.1888218 C117.725059,44.8806647 117.519111,44.6752266 117.416137,44.6238671 C117.416137,44.6238671 116.206192,43.776435 114.558608,43.776435 C111.907026,43.776435 111.006003,45.5996979 111.006003,46.755287 C111.006003,48.6555891 112.112974,49.4003021 113.940763,50.2220544 C115.871526,51.0181269 116.875523,51.7114804 116.875523,52.8670695 C116.875523,53.8429003 116.000244,54.7160121 114.635838,54.7160121 C113.142715,54.7160121 111.93277,53.5347432 111.804052,53.4577039 C111.572361,53.2522659 111.392156,53.3806647 111.211952,53.6117825 C111.134721,53.7145015 111.031747,53.8172205 110.954516,53.9199396 C110.748568,54.2280967 110.928773,54.3821752 111.057491,54.4848943 C111.263439,54.6903323 112.602101,55.8459215 114.584351,55.8459215 C116.540858,55.8459215 118.188442,54.5876133 118.188442,52.8413897 C118.188442,50.8640483 116.746806,50.0166163 114.481377,49.092145 L114.481377,49.092145 Z M125.061958,49.092145 C123.646066,48.5015106 122.79653,47.8595166 122.79653,46.7296073 C122.79653,46.0362538 123.337143,44.8806647 125.113445,44.8806647 C126.143186,44.8806647 127.19867,45.5740181 127.301644,45.6510574 C127.559079,45.805136 127.739283,45.7280967 127.893744,45.4969789 C127.970975,45.3942598 128.022462,45.2915408 128.099692,45.1888218 C128.30564,44.8806647 128.099692,44.6752266 127.996718,44.6238671 C127.996718,44.6238671 126.786773,43.776435 125.139189,43.776435 C122.487608,43.776435 121.586585,45.5996979 121.586585,46.755287 C121.586585,48.6555891 122.693556,49.4003021 124.521345,50.2220544 C126.452108,51.0181269 127.456105,51.7114804 127.456105,52.8670695 C127.456105,53.8429003 126.580825,54.7160121 125.21642,54.7160121 C123.723296,54.7160121 122.513351,53.5347432 122.384634,53.4577039 C122.152942,53.2522659 121.972738,53.3806647 121.792533,53.6117825 C121.715303,53.7145015 121.612329,53.8172205 121.535098,53.9199396 C121.32915,54.2280967 121.509354,54.3821752 121.638072,54.4848943 C121.84402,54.6903323 123.182682,55.8459215 125.164933,55.8459215 C127.121439,55.8459215 128.769024,54.5876133 128.769024,52.8413897 C128.794767,50.8640483 127.327387,50.0166163 125.061958,49.092145 Z M69.0842558,28.7736988 L68.7783058,29.3424665 L65.2181598,28.5794855 L61.6580137,29.3424665 L61.3520637,28.7736988 L65.2042529,27.9552282 L69.0842558,28.7736988 Z M48.1683979,27.8165044 L55.6780809,23.8628753 L55.7893355,23.0721495 L48.2935593,27.0257786 L48.1683979,27.8165044 Z M65.2181598,32.6857108 L63.4519936,32.7966898 L63.7579436,33.3932023 L65.2181598,33.309968 L66.6783759,33.3793299 L66.984326,32.7828174 L65.2181598,32.6857108 Z M48.3630934,26.6234795 L55.9284037,22.0872103 L56.0535651,21.2548673 L48.5160684,25.7772641 L48.3630934,26.6234795 Z M62.0613115,30.1193199 L62.3672616,30.70196 L65.2320666,30.2441714 L68.0968716,30.70196 L68.4028216,30.1193199 L65.2459734,29.6199142 L62.0613115,30.1193199 Z M64.1473346,34.1145662 C64.3003096,34.3642691 64.5506324,34.6555891 65.2181598,34.6555891 C65.8856871,34.6555891 66.1360099,34.3642691 66.2889849,34.1145662 L64.1473346,34.1145662 Z M65.2181598,31.1874934 L62.7566525,31.4510687 L63.0626026,32.0337088 L65.2181598,31.7978783 L67.3737169,32.0337088 L67.679667,31.4510687 L65.2181598,31.1874934 Z M47.9876092,28.8985503 L55.4555718,25.4859441 L55.5668264,24.7368354 L48.1266774,28.1355692 L47.9876092,28.8985503 Z M48.1544911,33.9758424 L53.4808033,33.9758424 C53.8980079,33.9758424 54.2456784,33.6706499 54.3152125,33.3238404 L47.5147773,33.7261395 C47.6816592,33.8787357 47.9041683,33.9758424 48.1544911,33.9758424 Z M54.7046035,2.44391625 C54.6489762,2.33293719 54.5377217,2.23583051 54.4264671,2.16646859 L51.8397985,6.09235293 L51.5477553,7.78478363 L54.8714853,2.74910867 L54.7046035,2.44391625 Z M47.8207274,29.8834894 L55.2330627,26.9841614 L55.3304104,26.2627975 L47.9319819,29.1621255 L47.8207274,29.8834894 Z M47.5147773,33.7261395 L54.3708398,32.9770308 L54.4542807,32.3527736 L47.2783614,33.129627 C47.2922682,33.3654575 47.3757091,33.5735433 47.5147773,33.7261395 Z M47.6677523,30.7851943 L55.0383672,28.3575273 L55.1357149,27.6639082 L47.7790069,30.0777028 L47.6677523,30.7851943 Z M47.2922682,32.9770308 L47.2922682,33.1018822 L54.5238148,31.9504745 L54.6211626,31.3123449 L47.3896159,32.4637526 L47.2922682,32.9770308 Z M47.5286841,31.6175373 L54.8575785,29.6476589 L54.9549263,28.9679122 L47.6399387,30.9377905 L47.5286841,31.6175373 Z M47.4035228,32.3943907 L54.6906967,30.8406839 L54.7880444,30.1886819 L47.5147773,31.7423887 L47.4035228,32.3943907 Z M58.1395881,8.83908472 L49.9206573,17.3983449 L49.7259618,18.5774975 L58.4733518,9.46334195 L58.1395881,8.83908472 Z M57.2356448,7.14665402 L50.3239551,15.081657 L50.1014459,16.3717886 L57.5833153,7.78478363 L57.2356448,7.14665402 Z M59.0574383,10.5315154 L49.5729867,19.4514576 L49.3921981,20.5473758 L59.3772952,11.1419003 L59.0574383,10.5315154 Z M56.3177947,5.45422332 L50.7550665,12.473649 L50.5186505,13.8747597 L56.679372,6.10622531 L56.3177947,5.45422332 Z M59.9613816,12.2100737 L49.2670367,21.2826121 L49.1001549,22.295296 L60.2812385,12.8065862 L59.9613816,12.2100737 Z M53.2165737,2 C52.8549964,2 52.4516986,2.3190648 52.4099781,2.72136391 L52.187469,4.05311266 L53.425176,2 L53.2165737,2 Z M55.4138513,3.76179262 L51.255712,9.5049591 L50.9914824,11.0447936 L55.7615218,4.44153937 L55.4138513,3.76179262 Z M60.865325,13.9025044 L48.9889003,22.9334257 L48.8220184,23.8906201 L61.1851818,14.4851445 L60.865325,13.9025044 Z M64.4950051,20.6306101 L58.5289791,23.3634695 L58.8210223,23.9322372 L64.8009551,21.1993778 L64.4950051,20.6306101 Z M65.2181598,22.3785303 L59.238227,24.722963 L59.5302702,25.2917307 L65.2181598,23.0721495 L70.9060493,25.2917307 L71.1980926,24.722963 L65.2181598,22.3785303 Z M59.9474748,26.0824566 L60.239518,26.6512242 L65.2181598,25.0142831 L70.1968015,26.6512242 L70.4888447,26.0824566 L65.2181598,24.3484087 L59.9474748,26.0824566 Z M61.7831751,15.5949351 L48.7385775,24.431643 L48.5856025,25.3333479 L62.0891252,16.1775752 L61.7831751,15.5949351 Z M63.5910618,18.9520518 L57.8058245,22.003976 L58.1117745,22.5727437 L63.8970118,19.5208195 L63.5910618,18.9520518 Z M65.2181598,26.1934356 L60.6428158,27.4280777 L60.9348591,27.9968454 L65.2042529,26.8454376 L69.4736468,27.9968454 L69.76569,27.4280777 L65.2181598,26.1934356 Z M62.6871184,17.2734935 L57.0965766,20.6306101 L57.4025267,21.2132502 L62.9930685,17.8561335 L62.6871184,17.2734935 Z M82.1288534,27.0119062 L74.6330772,23.0582771 L74.7443318,23.8490029 L82.2540148,27.802632 L82.1288534,27.0119062 Z M81.9202511,25.7772641 L74.3827544,21.2548673 L74.5079158,22.0872103 L82.0732261,26.6234795 L81.9202511,25.7772641 Z M82.3235489,28.1216968 L74.8834,24.722963 L74.9946545,25.4720717 L82.4626171,28.8846779 L82.3235489,28.1216968 Z M76.9555162,33.9758424 L82.2818285,33.9758424 C82.5321512,33.9758424 82.7546603,33.8787357 82.9076354,33.7261395 L76.1072002,33.3238404 C76.1906411,33.6567776 76.5383116,33.9758424 76.9555162,33.9758424 Z M78.6104279,6.10622531 L76.0098524,2.16646859 C75.8985979,2.23583051 75.7873433,2.33293719 75.731716,2.44391625 L75.5648342,2.74910867 L78.8885643,7.78478363 L78.6104279,6.10622531 Z M82.4904308,29.1482532 L75.0920023,26.2489251 L75.18935,26.970289 L82.6016853,29.8696171 L82.4904308,29.1482532 Z M75.968132,32.3527736 L76.0515729,32.9770308 L82.9076354,33.7261395 C83.0606104,33.5735433 83.1440513,33.3793299 83.1301445,33.129627 L75.968132,32.3527736 Z M82.6434058,30.0777028 L75.3006046,27.6639082 L75.3979523,28.3575273 L82.7685672,30.7851943 L82.6434058,30.0777028 Z M83.1440513,32.9770308 L83.0606104,32.4498803 L75.8290638,31.2984725 L75.9264115,31.9366021 L83.1579581,33.0880099 C83.1440513,33.0602651 83.1440513,33.018648 83.1440513,32.9770308 Z M82.7963808,30.9377905 L75.4813933,28.9679122 L75.578741,29.6476589 L82.9076354,31.6175373 L82.7963808,30.9377905 Z M82.9215422,31.7285164 L75.6482751,30.1748095 L75.7456228,30.8268115 L83.0327968,32.3805183 L82.9215422,31.7285164 Z M80.5156623,17.3983449 L72.2967314,8.83908472 L71.9629677,9.46334195 L80.7103577,18.5774975 L80.5156623,17.3983449 Z M80.1262713,15.081657 L73.2145815,7.14665402 L72.866911,7.78478363 L80.3487804,16.3717886 L80.1262713,15.081657 Z M80.8633328,19.4514576 L71.392788,10.5315154 L71.0590243,11.1419003 L81.0441214,20.5473758 L80.8633328,19.4514576 Z M79.681253,12.473649 L74.1185248,5.45422332 L73.7708543,6.10622531 L79.9315758,13.8747597 L79.681253,12.473649 Z M81.1692828,21.2826121 L70.4749379,12.2100737 L70.155081,12.8065862 L81.3361647,22.295296 L81.1692828,21.2826121 Z M78.0402482,2.72136391 C77.9985278,2.3190648 77.5813231,2 77.2336526,2 L77.0389571,2 L78.2766642,4.05311266 L78.0402482,2.72136391 Z M79.1806075,9.5049591 L75.0224682,3.76179262 L74.6608908,4.44153937 L79.4309303,11.0447936 L79.1806075,9.5049591 Z M81.4474192,22.947298 L69.5709946,13.9163768 L69.2511377,14.4990169 L81.6143011,23.9044924 L81.4474192,22.947298 Z M65.6353644,21.1993778 L71.6152972,23.9322372 L71.9073404,23.3634695 L65.9413144,20.6306101 L65.6353644,21.1993778 Z M81.697742,24.431643 L68.6670512,15.5949351 L68.3611012,16.1775752 L81.8646238,25.3333479 L81.697742,24.431643 Z M66.5393077,19.5208195 L72.324545,22.5727437 L72.6304951,22.003976 L66.8452578,18.9520518 L66.5393077,19.5208195 Z M67.443251,17.8422612 L73.0337929,21.1993778 L73.3397429,20.6167377 L67.7492011,17.2596211 L67.443251,17.8422612 Z" id="MC-Logo"></path>
            </g>
        </g>
    </g>
</svg>